<svg xmlns="http://www.w3.org/2000/svg" viewBox="0 0 146.02 143.85" aria-labelledby="mapTitle" role="img">
                <defs>
                    <style>
                        /* SVG specific styles */
                        .st0{
                            fill:#CC0000; /* Your chosen fill */
                            stroke:#fff; /* White border */
                            stroke-linejoin:bevel;
                            stroke-width:0.75px;
                            transition: fill 0.2s ease-in-out, stroke-width 0.2s ease-in-out; /* Smooth hover effect */
                        }
                        .st0:hover {
                            fill: #007cc3; /* Blue on hover */
                            stroke-width: 0.85px; /* Slightly thicker stroke on hover */
                            cursor: pointer; /* Indicate interactivity */
                        }
                        /* --- Focus Styles (Keep your existing focus styles from style.css) --- */
                        .st0:focus { outline: none; }
                        .st0:focus-visible {
                            outline: none;
                            stroke: #ffffff;
                            stroke-width: 1.5px;
                            fill: #007cc3; /* Optional: Match hover fill or use a distinct focus color */
                            filter: drop-shadow(2px 2px 3px rgba(255, 255, 255, 0.9));
                        }
                    </style>
                </defs>
                <g id="svg3247" tabindex="0"> {/* Ensure the group itself isn't focusable if paths are */}
                    {/* Add a tabindex="-1" to the if you only want paths focusable */}
                    <path id="Crosby" d="m64.14 81.47 12.57.61-.62 12.76-12.54-.63.59-12.74" class="st0" aria-label="Crosby County"/>
                    <path id="Lubbock" d="m51.57 80.88 12.57.6-.59 12.74-12.56-.61.58-12.73" class="st0" aria-label="Lubbock County"/>
                    <path id="Hockley" d="m38.84 80.01 12.73.87-.58 12.73-12.54-.8.38-12.79" class="st0" aria-label="Hockley County"/>
                    <path id="Cochran" d="m28.46 79.28 10.38.73-.38 12.79L27.3 92l.5-5.32.67-7.4" class="st0" aria-label="Cochran County"/>
                    <path id="Floyd" d="m67.17 67.51 10.28.56-.73 14.02-12.57-.61.8-14.09 2.23.13" class="st0" aria-label="Floyd County"/>
                    <path id="Hale" d="m52.38 66.59 2.21.14 10.35.65-.8 14.09-12.57-.6.81-14.29" class="st0" aria-label="Hale County"/>
                    <path id="Lamb" d="m39.85 65.75 2.14.16 10.39.68-.81 14.29-12.73-.87 1.01-14.26" class="st0" aria-label="Lamb County"/>
                    <path id="Bailey" d="m39.85 65.75-1.01 14.26-10.38-.73 1.12-13.95.02-.31 10.25.73" class="st0" aria-label="Bailey County"/>
                    <path id="Briscoe" d="m67.9 54.78 9.05.48 3.46.19-.69 12.74-2.28-.11-10.28-.56.73-12.73" class="st0" aria-label="Briscoe County"/>
                    <path id="Swisher" d="m55.38 54 8.77.56 3.75.23-.73 12.73-2.23-.13-10.35-.65.79-12.73" class="st0" aria-label="Swisher County"/>
                    <path id="Castro" d="m51.33 53.76 4.05.23-.79 12.73-2.21-.14-10.39-.68.88-12.69 8.47.55" class="st0" aria-label="Castro County"/>
                    <path id="Parmer" d="m30.58 52.32 12.28.89-.88 12.69-2.14-.16-10.25-.73.98-12.7" class="st0" aria-label="Parmer County"/>
                    <path id="Armstrong" d="m65.06 41.82 12.68.74-.78 12.7-9.05-.48-3.75-.23.91-12.74" class="st0" aria-label="Armstrong County"/>
                    <path id="Randall" d="m52.2 41.01 12.86.81-.91 12.74-8.77-.56-4.05-.23.87-12.75" class="st0" aria-label="Randall County"/>
                    <path id="Deaf-Smith" d="m30.58 52.32.45-6.04.51-6.7 4.83.34 5.02.25 10.81.85-.87 12.75-8.47-.55-12.28-.89" class="st0" aria-label="Deaf Smith County"/>
                    <path id="Carson" d="M65.53 29.3v-.11l12.62.67v.18l-.7 12.8-12.68-.74.76-12.8" class="st0" aria-label="Carson County"/>
                    <path id="Potter" d="m52.84 28.52 12.69.78-.76 12.8-12.86-.81.94-12.78" class="st0" aria-label="Potter County"/>
                    <path id="Oldham" d="m52.86 28.31-.02.21-.94 12.78-10.81-.85-5.02-.25-4.83-.34.97-12.85 20.65 1.29" class="st0" aria-label="Oldham County"/>
                    <path id="Hutchinson" d="m66.26 16.55 12.57.71-.68 12.6-12.62-.67.73-12.64" class="st0" aria-label="Hutchinson County"/>
                    <path id="Moore" d="m53.67 15.78 12.6.78-.73 12.64v.11l-12.69-.78.02-.21.8-12.53" class="st0" aria-label="Moore County"/>
                    <path id="Hartley" d="m33.17 14.35 20.49 1.43-.8 12.53-20.65-1.29.26-3.41.69-9.25" class="st0" aria-label="Hartley County"/>
                    <path id="Hansford" d="m79.54 4.25-.7 12.94v.07l-12.57-.71.76-13.02 12.51.71" class="st0" aria-label="Hansford County"/>
                    <path id="Sherman" d="m57.55 2.94 9.48.6-.76 13.02-12.6-.78.86-13.04 3.03.2" class="st0" aria-label="Sherman County"/>
                    <path id="Dallam" d="m54.52 2.74-.86 13.04-20.49-1.43.55-7.7.35-4.7.96-.57 19.48 1.35" class="st0" aria-label="Dallam County"/>
                    <path id="Lynn" d="m63.55 94.22-.75 12.67-3.25-.21-9.36-.52.8-12.55 12.56.61" class="st0" aria-label="Lynn County"/>
                    <path id="Terry" d="m38.46 92.8 12.54.8-.8 12.55-3.22-.18-9.39-.63.88-12.54" class="st0" aria-label="Terry County"/>
                    <path id="Yoakum" d="m38.46 92.8-.88 12.54-11.41-.83L27.29 92l11.16.8" class="st0" aria-label="Yoakum County"/>
                    <path id="Dawson" d="m50.19 106.15 9.36.52-.7 12.74-12.57-.72.7-12.72 3.22.18" class="st0" aria-label="Dawson County"/>
                    <path id="Gaines" d="m26.17 104.51 11.41.83 9.39.63-.7 12.72h-.2l-20.85-1.45.95-12.74" class="st0" aria-label="Gaines County"/>
                    <path id="Howard" d="m71.41 120.17-.93 12.74-1.98-.11-10.58-.62.92-12.76 12.57.75" class="st0" aria-label="Howard County"/>
                    <path id="Borden" d="m62.8 106.89 9.35.46-.72 12.72v.1l-12.58-.75.7-12.74 3.25.21" class="st0" aria-label="Borden County"/>
                    <path id="Garza" d="m76.09 94.85-.66 12.48-3.28.02-9.35-.46.75-12.67 12.54.63" class="st0" aria-label="Garza County"/>
                    <path id="Scurry" d="m75.43 107.33 9.3.67-.74 12.79-12.56-.73.72-12.72 3.28-.02" class="st0" aria-label="Scurry County"/>
                    <path id="Mitchell" d="m71.42 120.07 12.56.73-.74 12.83-3.84-.24-8.91-.48.93-12.74v-.1" class="st0" aria-label="Mitchell County"/>
                    <path id="Kent" d="m88.7 95.46-.64 12.71-3.33-.17-9.3-.67.66-12.48 12.61.61" class="st0" aria-label="Kent County"/>
                    <path id="Dickens" d="m76.71 82.09 12.57.57-.58 12.8-12.61-.61.62-12.76" class="st0" aria-label="Dickens County"/>
                    <path id="Motley" d="m77.44 68.07 2.28.11 10.26.47-.7 14-12.57-.57.73-14.02" class="st0" aria-label="Motley County"/>
                    <path id="Hall" d="m90.02 55.93 2.97.15-.64 12.7-2.37-.13-10.26-.47.69-12.74 9.6.49" class="st0" aria-label="Hall County"/>
                    <path id="Donley" d="m90.67 43.18-.65 12.75-9.6-.49-3.46-.19.78-12.7 12.93.62" class="st0" aria-label="Donley County"/>
                    <path id="Gray" d="m78.14 30.05 12.82.64-.58 12.78-12.93-.62.69-12.8" class="st0" aria-label="Gray County"/>
                    <path id="Roberts" d="M78.83 17.26v-.07l12.6.67h.15l-.62 12.82-12.82-.64v-.18l.69-12.6" class="st0" aria-label="Roberts County"/>
                    <path id="Ochiltree" d="m82.58 4.4 9.48.48-.63 12.99-12.6-.67.7-12.94 3.05.15" class="st0" aria-label="Ochiltree County"/>
                    <path id="Lipscomb" d="m92.06 4.88 12.61.56-.48 13.03-12.61-.59h-.15l.63-13" class="st0" aria-label="Lipscomb County"/>
                    <path id="Hemphill" d="m104.19 18.47-.21 5.12-.31 7.68-12.7-.58.62-12.82 12.61.59" class="st0" aria-label="Hemphill County"/>
                    <path id="Wheeler" d="m90.96 30.69 12.7.58-.54 12.79-12.74-.59.58-12.78" class="st0" aria-label="Wheeler County"/>
                    <path id="Collingsworth" d="m90.38 43.47 12.74.59-.19 4.46-.35 8.32-9.88-.47-2.97-.15.65-12.75" class="st0" aria-label="Collingsworth County"/>
                    <path id="Childress" d="m93 56.08 9.88.47-.16 5.42-.32 7.31-10.04-.5.64-12.7" class="st0" aria-label="Childress County"/>
                    <path id="Cottle" d="m89.98 68.66 2.37.13 10.04.5-.1 2.56-.27-.52-.67.06-.24.26-.53 11.52-11.31-.5.7-14" class="st0" aria-label="Cottle County"/>
                    <path id="King" d="m89.28 82.66 11.31.5 1.25.06-.41 12.83-12.74-.59.58-12.8" class="st0" aria-label="King County"/>
                    <path id="Knox" d="m114.29 86.7-.31 9.79-12.55-.44.41-12.83 3.87.16 3.25.63 3.7.82 1.22.87.35.63.06.38" class="st0" aria-label="Knox County"/>
                    <path id="Foard" d="m102.3 71.84 4.36 3.37 6.19 2 1.44-.24.27-.28.09-.28-.28 7.36-.08 2.94-.06-.38-.35-.63-1.22-.87-3.7-.82-3.25-.63-3.87-.16-1.25-.06.53-11.52.24-.26.67-.06.27.52" class="st0" aria-label="Foard County"/>
                    <path id="Hardeman" d="m106.2 63.71 1.24 1.61.6.71 1.67 1.59.73.17h1.13l.93-1.18.13-.05.26.04 1.14.13.37.15.59.35-.36 9.17-.09.28-.27.28-1.44.24-6.19-2-4.36-3.37.1-2.56.32-7.31 3.49 1.74" class="st0" aria-label="Hardeman County"/>
                </g>
            </svg>